<svg xmlns="http://www.w3.org/2000/svg" xmlns:xlink="http://www.w3.org/1999/xlink" width="500" zoomAndPan="magnify" viewBox="0 0 375 374.999991" height="500" preserveAspectRatio="xMidYMid meet" version="1.0"><defs><clipPath id="335df495af"><path d="M 89 78.457031 L 286 78.457031 L 286 274 L 89 274 Z M 89 78.457031 " clip-rule="nonzero"/></clipPath><clipPath id="36e63867be"><path d="M 280.675781 73.382812 L 337.675781 73.382812 L 337.675781 278.882812 L 280.675781 278.882812 Z M 280.675781 73.382812 " clip-rule="nonzero"/></clipPath><clipPath id="166a9cca08"><path d="M 37.5 73.382812 L 94.324219 73.382812 L 94.324219 278.882812 L 37.5 278.882812 Z M 37.5 73.382812 " clip-rule="nonzero"/></clipPath></defs><path fill="#ffffff" d="M 207.003906 176.21875 C 207.003906 176.855469 206.972656 177.496094 206.910156 178.132812 C 206.847656 178.769531 206.753906 179.398438 206.628906 180.027344 C 206.503906 180.652344 206.347656 181.273438 206.164062 181.886719 C 205.976562 182.496094 205.761719 183.097656 205.515625 183.6875 C 205.273438 184.28125 205 184.855469 204.699219 185.421875 C 204.394531 185.984375 204.066406 186.53125 203.710938 187.066406 C 203.355469 187.597656 202.976562 188.109375 202.570312 188.601562 C 202.164062 189.097656 201.738281 189.570312 201.285156 190.023438 C 200.832031 190.476562 200.359375 190.902344 199.863281 191.308594 C 199.371094 191.714844 198.859375 192.097656 198.324219 192.453125 C 197.792969 192.804688 197.246094 193.136719 196.683594 193.4375 C 196.117188 193.738281 195.542969 194.011719 194.949219 194.253906 C 194.359375 194.5 193.757812 194.714844 193.144531 194.902344 C 192.535156 195.085938 191.914062 195.242188 191.289062 195.367188 C 190.660156 195.492188 190.027344 195.585938 189.390625 195.648438 C 188.757812 195.710938 188.117188 195.742188 187.480469 195.742188 C 186.839844 195.742188 186.203125 195.710938 185.566406 195.648438 C 184.929688 195.585938 184.296875 195.492188 183.667969 195.367188 C 183.042969 195.242188 182.421875 195.085938 181.8125 194.902344 C 181.199219 194.714844 180.597656 194.5 180.007812 194.253906 C 179.417969 194.011719 178.839844 193.738281 178.273438 193.4375 C 177.710938 193.136719 177.164062 192.804688 176.632812 192.453125 C 176.101562 192.097656 175.585938 191.714844 175.09375 191.308594 C 174.597656 190.902344 174.125 190.476562 173.671875 190.023438 C 173.222656 189.570312 172.792969 189.097656 172.386719 188.601562 C 171.980469 188.109375 171.601562 187.597656 171.246094 187.066406 C 170.890625 186.53125 170.5625 185.984375 170.261719 185.421875 C 169.957031 184.855469 169.6875 184.28125 169.441406 183.6875 C 169.195312 183.097656 168.980469 182.496094 168.796875 181.886719 C 168.609375 181.273438 168.453125 180.652344 168.328125 180.027344 C 168.207031 179.398438 168.113281 178.769531 168.046875 178.132812 C 167.984375 177.496094 167.953125 176.855469 167.953125 176.21875 C 167.953125 175.578125 167.984375 174.941406 168.046875 174.304688 C 168.113281 173.667969 168.207031 173.035156 168.328125 172.410156 C 168.453125 171.78125 168.609375 171.160156 168.796875 170.550781 C 168.980469 169.9375 169.195312 169.335938 169.441406 168.746094 C 169.6875 168.15625 169.957031 167.578125 170.261719 167.015625 C 170.5625 166.449219 170.890625 165.902344 171.246094 165.371094 C 171.601562 164.839844 171.980469 164.324219 172.386719 163.832031 C 172.792969 163.335938 173.222656 162.863281 173.671875 162.410156 C 174.125 161.960938 174.597656 161.53125 175.09375 161.125 C 175.585938 160.71875 176.101562 160.339844 176.632812 159.984375 C 177.164062 159.628906 177.710938 159.300781 178.273438 159 C 178.839844 158.699219 179.417969 158.425781 180.007812 158.179688 C 180.597656 157.933594 181.199219 157.71875 181.8125 157.535156 C 182.421875 157.347656 183.042969 157.191406 183.667969 157.070312 C 184.296875 156.945312 184.929688 156.851562 185.566406 156.789062 C 186.203125 156.726562 186.839844 156.695312 187.480469 156.695312 C 188.117188 156.695312 188.757812 156.726562 189.390625 156.789062 C 190.027344 156.851562 190.660156 156.945312 191.289062 157.070312 C 191.914062 157.191406 192.535156 157.347656 193.144531 157.535156 C 193.757812 157.71875 194.359375 157.933594 194.949219 158.179688 C 195.542969 158.425781 196.117188 158.699219 196.683594 159 C 197.246094 159.300781 197.792969 159.628906 198.324219 159.984375 C 198.859375 160.339844 199.371094 160.71875 199.863281 161.125 C 200.359375 161.53125 200.832031 161.960938 201.285156 162.410156 C 201.738281 162.863281 202.164062 163.335938 202.570312 163.832031 C 202.976562 164.324219 203.355469 164.839844 203.710938 165.371094 C 204.066406 165.902344 204.394531 166.449219 204.699219 167.015625 C 205 167.578125 205.273438 168.15625 205.515625 168.746094 C 205.761719 169.335938 205.976562 169.9375 206.164062 170.550781 C 206.347656 171.160156 206.503906 171.78125 206.628906 172.410156 C 206.753906 173.035156 206.847656 173.667969 206.910156 174.304688 C 206.972656 174.941406 207.003906 175.578125 207.003906 176.21875 Z M 207.003906 176.21875 " fill-opacity="1" fill-rule="nonzero"/><path fill="#ffffff" d="M 181.636719 255.359375 C 181.636719 256.285156 181.542969 257.199219 181.363281 258.109375 C 181.183594 259.015625 180.917969 259.898438 180.5625 260.753906 C 180.207031 261.609375 179.773438 262.421875 179.257812 263.191406 C 178.746094 263.960938 178.160156 264.671875 177.507812 265.328125 C 176.851562 265.980469 176.140625 266.566406 175.371094 267.078125 C 174.601562 267.59375 173.789062 268.027344 172.933594 268.382812 C 172.078125 268.738281 171.195312 269.003906 170.289062 269.183594 C 169.378906 269.363281 168.464844 269.457031 167.539062 269.457031 C 166.613281 269.457031 165.695312 269.363281 164.789062 269.183594 C 163.878906 269.003906 163 268.738281 162.144531 268.382812 C 161.289062 268.027344 160.476562 267.59375 159.707031 267.078125 C 158.9375 266.566406 158.226562 265.980469 157.570312 265.328125 C 156.914062 264.671875 156.332031 263.960938 155.816406 263.191406 C 155.304688 262.421875 154.867188 261.609375 154.515625 260.753906 C 154.160156 259.898438 153.894531 259.015625 153.710938 258.109375 C 153.53125 257.199219 153.441406 256.285156 153.441406 255.359375 C 153.441406 254.433594 153.53125 253.515625 153.710938 252.609375 C 153.894531 251.699219 154.160156 250.820312 154.515625 249.964844 C 154.867188 249.109375 155.304688 248.296875 155.816406 247.527344 C 156.332031 246.757812 156.914062 246.046875 157.570312 245.390625 C 158.226562 244.734375 158.9375 244.152344 159.707031 243.636719 C 160.476562 243.125 161.289062 242.6875 162.144531 242.335938 C 163 241.980469 163.878906 241.714844 164.789062 241.53125 C 165.695312 241.351562 166.613281 241.261719 167.539062 241.261719 C 168.464844 241.261719 169.378906 241.351562 170.289062 241.53125 C 171.195312 241.714844 172.078125 241.980469 172.933594 242.335938 C 173.789062 242.6875 174.601562 243.125 175.371094 243.636719 C 176.140625 244.152344 176.851562 244.734375 177.507812 245.390625 C 178.160156 246.046875 178.746094 246.757812 179.257812 247.527344 C 179.773438 248.296875 180.207031 249.109375 180.5625 249.964844 C 180.917969 250.820312 181.183594 251.699219 181.363281 252.609375 C 181.542969 253.515625 181.636719 254.433594 181.636719 255.359375 Z M 181.636719 255.359375 " fill-opacity="1" fill-rule="nonzero"/><path fill="#ffffff" d="M 119.402344 161.035156 C 119.402344 161.960938 119.308594 162.878906 119.128906 163.785156 C 118.949219 164.695312 118.679688 165.574219 118.328125 166.429688 C 117.972656 167.285156 117.539062 168.097656 117.023438 168.867188 C 116.511719 169.636719 115.925781 170.347656 115.273438 171.003906 C 114.617188 171.65625 113.90625 172.242188 113.136719 172.757812 C 112.367188 173.269531 111.554688 173.707031 110.699219 174.058594 C 109.84375 174.414062 108.960938 174.679688 108.054688 174.863281 C 107.144531 175.042969 106.230469 175.132812 105.304688 175.132812 C 104.378906 175.132812 103.460938 175.042969 102.554688 174.863281 C 101.644531 174.679688 100.765625 174.414062 99.910156 174.058594 C 99.054688 173.707031 98.242188 173.269531 97.472656 172.757812 C 96.703125 172.242188 95.988281 171.65625 95.335938 171.003906 C 94.679688 170.347656 94.097656 169.636719 93.582031 168.867188 C 93.070312 168.097656 92.632812 167.285156 92.28125 166.429688 C 91.925781 165.574219 91.660156 164.695312 91.476562 163.785156 C 91.296875 162.878906 91.207031 161.960938 91.207031 161.035156 C 91.207031 160.109375 91.296875 159.191406 91.476562 158.285156 C 91.660156 157.378906 91.925781 156.496094 92.28125 155.640625 C 92.632812 154.785156 93.070312 153.972656 93.582031 153.203125 C 94.097656 152.433594 94.679688 151.722656 95.335938 151.066406 C 95.988281 150.414062 96.703125 149.828125 97.472656 149.316406 C 98.242188 148.800781 99.054688 148.367188 99.910156 148.011719 C 100.765625 147.65625 101.644531 147.390625 102.554688 147.210938 C 103.460938 147.027344 104.378906 146.9375 105.304688 146.9375 C 106.230469 146.9375 107.144531 147.027344 108.054688 147.210938 C 108.960938 147.390625 109.84375 147.65625 110.699219 148.011719 C 111.554688 148.367188 112.367188 148.800781 113.136719 149.316406 C 113.90625 149.828125 114.617188 150.414062 115.273438 151.066406 C 115.925781 151.722656 116.511719 152.433594 117.023438 153.203125 C 117.539062 153.972656 117.972656 154.785156 118.328125 155.640625 C 118.679688 156.496094 118.949219 157.378906 119.128906 158.285156 C 119.308594 159.191406 119.402344 160.109375 119.402344 161.035156 Z M 119.402344 161.035156 " fill-opacity="1" fill-rule="nonzero"/><path fill="#ffffff" d="M 263.617188 131.257812 C 271.390625 131.257812 277.710938 124.933594 277.710938 117.160156 C 277.710938 109.390625 271.390625 103.066406 263.617188 103.066406 C 255.84375 103.066406 249.519531 109.390625 249.519531 117.160156 C 249.519531 124.933594 255.84375 131.257812 263.617188 131.257812 Z M 263.617188 131.257812 " fill-opacity="1" fill-rule="nonzero"/><g clip-path="url(#335df495af)"><path fill="#ffffff" d="M 261.59375 176.21875 C 264.050781 173.804688 266.359375 171.382812 268.496094 168.960938 C 283.40625 152.058594 288.535156 136.871094 282.9375 126.191406 C 282.730469 125.796875 282.511719 125.410156 282.277344 125.035156 C 281.324219 127.28125 279.972656 129.320312 278.316406 131.070312 C 280.910156 139.265625 275.773438 151.40625 263.878906 164.886719 C 261.789062 167.257812 259.527344 169.628906 257.113281 171.988281 C 248.011719 163.707031 237.175781 155.617188 225.152344 148.136719 C 224.144531 139.476562 222.664062 131.230469 220.746094 123.613281 C 228.816406 121.523438 236.484375 120.132812 243.503906 119.511719 C 243.414062 118.742188 243.363281 117.957031 243.363281 117.160156 C 243.363281 115.847656 243.492188 114.566406 243.734375 113.324219 C 236.152344 113.945312 227.859375 115.429688 219.136719 117.691406 C 218.15625 114.375 217.09375 111.199219 215.941406 108.1875 C 208.621094 89.03125 198.511719 78.484375 187.480469 78.484375 C 176.445312 78.484375 166.335938 89.03125 159.015625 108.1875 C 157.867188 111.1875 156.808594 114.351562 155.832031 117.65625 C 148.726562 115.816406 141.871094 114.492188 135.40625 113.726562 C 113.027344 111.085938 97.617188 115.511719 92.019531 126.191406 C 89.859375 130.3125 89.296875 135.140625 90.300781 140.496094 C 90.703125 142.652344 91.363281 144.894531 92.277344 147.210938 C 93.867188 145.871094 95.667969 144.769531 97.621094 143.964844 C 96.679688 141.363281 96.039062 138.65625 95.96875 136.027344 C 95.90625 133.589844 96.335938 131.21875 97.472656 129.050781 C 101.738281 120.910156 115.300781 117.554688 134.683594 119.84375 C 140.859375 120.570312 147.414062 121.839844 154.214844 123.589844 C 152.296875 131.214844 150.816406 139.46875 149.804688 148.136719 C 143.15625 152.273438 136.871094 156.597656 131.042969 161.035156 L 117.851562 171.984375 L 113.371094 176.214844 C 110.910156 178.628906 108.601562 181.050781 106.460938 183.476562 C 91.550781 200.375 86.421875 215.5625 92.019531 226.242188 C 96.558594 234.90625 107.550781 239.453125 123.480469 239.453125 C 127.195312 239.453125 131.175781 239.207031 135.40625 238.707031 C 141.871094 237.941406 148.722656 236.617188 155.828125 234.78125 C 156.167969 235.921875 156.515625 237.042969 156.875 238.152344 C 158.617188 237.066406 160.53125 236.238281 162.570312 235.722656 C 162.300781 234.875 162.039062 234.015625 161.78125 233.140625 C 170.121094 230.699219 178.753906 227.59375 187.480469 223.882812 C 196.222656 227.601562 204.871094 230.714844 213.234375 233.15625 C 206.761719 254.953125 196.921875 267.796875 187.480469 267.796875 C 186.296875 267.796875 185.117188 267.601562 183.941406 267.21875 C 182.625 269.03125 181.023438 270.613281 179.195312 271.90625 C 181.878906 273.261719 184.644531 273.953125 187.480469 273.953125 C 198.511719 273.953125 208.621094 263.402344 215.941406 244.25 C 217.089844 241.25 218.152344 238.082031 219.125 234.78125 C 226.230469 236.617188 233.085938 237.941406 239.550781 238.707031 C 243.78125 239.207031 247.761719 239.453125 251.476562 239.453125 C 267.40625 239.453125 278.398438 234.90625 282.9375 226.242188 C 288.535156 215.5625 283.40625 200.375 268.496094 183.476562 C 266.359375 181.050781 264.050781 178.628906 261.59375 176.21875 Z M 149.035156 155.917969 C 148.492188 162.519531 148.210938 169.3125 148.210938 176.21875 C 148.210938 183.128906 148.488281 189.914062 149.027344 196.496094 C 139.109375 190.054688 130.074219 183.1875 122.351562 176.207031 C 130.070312 169.222656 139.082031 162.371094 149.035156 155.917969 Z M 134.683594 232.59375 C 115.300781 234.882812 101.738281 231.527344 97.472656 223.386719 C 93.207031 215.246094 98.164062 202.183594 111.078125 187.550781 C 113.171875 185.175781 115.433594 182.800781 117.851562 180.4375 C 126.957031 188.710938 137.828125 196.816406 149.796875 204.277344 C 150.804688 212.964844 152.285156 221.21875 154.207031 228.847656 C 147.40625 230.597656 140.859375 231.863281 134.683594 232.59375 Z M 225.921875 155.917969 C 235.878906 162.371094 244.894531 169.226562 252.617188 176.21875 C 244.894531 183.207031 235.878906 190.0625 225.921875 196.519531 C 226.464844 189.917969 226.746094 183.121094 226.746094 176.21875 C 226.746094 169.3125 226.464844 162.519531 225.921875 155.917969 Z M 218.46875 144.113281 C 214.894531 142.027344 211.230469 140 207.488281 138.039062 C 203.425781 135.910156 199.351562 133.902344 195.28125 132.015625 C 201.933594 129.375 208.5 127.101562 214.859375 125.234375 C 216.308594 131.019531 217.53125 137.332031 218.46875 144.113281 Z M 187.480469 84.640625 C 196.929688 84.640625 206.773438 97.496094 213.242188 119.316406 C 204.898438 121.753906 196.238281 124.859375 187.5 128.5625 C 178.75 124.839844 170.089844 121.722656 161.726562 119.277344 C 168.199219 97.480469 178.035156 84.640625 187.480469 84.640625 Z M 160.101562 125.210938 C 166.488281 127.082031 173.058594 129.359375 179.71875 132.007812 C 175.628906 133.898438 171.539062 135.90625 167.46875 138.039062 C 163.730469 140 160.066406 142.027344 156.488281 144.113281 C 157.429688 137.324219 158.652344 131 160.101562 125.210938 Z M 160.171875 227.203125 C 158.699219 221.296875 157.488281 214.972656 156.5625 208.359375 C 160.125 210.4375 163.765625 212.453125 167.46875 214.398438 C 171.542969 216.53125 175.625 218.542969 179.703125 220.429688 C 173.074219 223.070312 166.53125 225.335938 160.171875 227.203125 Z M 214.855469 227.222656 C 208.472656 225.355469 201.90625 223.082031 195.253906 220.429688 C 199.332031 218.542969 203.414062 216.53125 207.488281 214.398438 C 211.230469 212.433594 214.894531 210.40625 218.46875 208.324219 C 217.53125 215.113281 216.304688 221.433594 214.855469 227.222656 Z M 219.394531 200.613281 C 214.640625 203.496094 209.710938 206.28125 204.628906 208.945312 C 198.914062 211.9375 193.179688 214.6875 187.480469 217.179688 C 181.777344 214.6875 176.042969 211.9375 170.328125 208.945312 C 165.285156 206.300781 160.371094 203.519531 155.617188 200.636719 C 154.796875 192.738281 154.371094 184.527344 154.371094 176.21875 C 154.371094 167.617188 154.792969 159.460938 155.566406 151.824219 C 160.316406 148.941406 165.246094 146.152344 170.328125 143.492188 C 176.035156 140.5 181.78125 137.753906 187.496094 135.261719 C 193.191406 137.75 198.917969 140.5 204.628906 143.492188 C 209.710938 146.152344 214.640625 148.941406 219.394531 151.824219 C 220.164062 159.460938 220.589844 167.617188 220.589844 176.21875 C 220.589844 184.816406 220.164062 192.972656 219.394531 200.613281 Z M 277.484375 223.386719 C 273.21875 231.527344 259.65625 234.878906 240.273438 232.59375 C 234.097656 231.863281 227.542969 230.597656 220.742188 228.84375 C 222.660156 221.21875 224.140625 212.96875 225.152344 204.296875 C 237.175781 196.816406 248.011719 188.726562 257.113281 180.445312 C 259.527344 182.808594 261.789062 185.179688 263.878906 187.550781 C 276.792969 202.183594 281.75 215.246094 277.484375 223.386719 Z M 277.484375 223.386719 " fill-opacity="1" fill-rule="nonzero"/></g><g clip-path="url(#36e63867be)"><path fill="#ffffff" d="M 291.460938 278.679688 L 280.820312 278.679688 L 280.820312 267.648438 L 287.984375 267.648438 C 301.011719 267.648438 304.269531 261.160156 304.269531 245.808594 C 304.269531 231.316406 302.96875 218.558594 302.96875 202.554688 C 302.96875 186.984375 306.875 179.199219 317.300781 176.386719 L 317.300781 175.523438 C 306.875 172.710938 302.96875 164.925781 302.96875 149.570312 C 302.96875 133.351562 304.269531 120.808594 304.269531 106.316406 C 304.269531 90.746094 301.011719 84.476562 287.984375 84.476562 L 280.820312 84.476562 L 280.820312 73.230469 L 291.460938 73.230469 C 310.351562 73.230469 319.472656 80.582031 319.472656 105.234375 C 319.472656 122.539062 317.300781 135.082031 317.300781 151.515625 C 317.300781 160.597656 321.640625 169.898438 337.710938 169.898438 L 337.710938 182.007812 C 321.640625 182.226562 317.300781 191.523438 317.300781 200.609375 C 317.300781 216.613281 319.472656 229.371094 319.472656 246.886719 C 319.472656 271.542969 310.351562 278.679688 291.460938 278.679688 Z M 291.460938 278.679688 " fill-opacity="1" fill-rule="nonzero"/></g><g clip-path="url(#166a9cca08)"><path fill="#ffffff" d="M 83.539062 278.679688 L 94.179688 278.679688 L 94.179688 267.648438 L 87.015625 267.648438 C 73.984375 267.648438 70.726562 261.160156 70.726562 245.808594 C 70.726562 231.316406 72.03125 218.558594 72.03125 202.554688 C 72.03125 186.984375 68.121094 179.199219 57.699219 176.386719 L 57.699219 175.523438 C 68.121094 172.710938 72.03125 164.925781 72.03125 149.570312 C 72.03125 133.351562 70.726562 120.808594 70.726562 106.316406 C 70.726562 90.746094 73.984375 84.476562 87.015625 84.476562 L 94.179688 84.476562 L 94.179688 73.230469 L 83.539062 73.230469 C 64.648438 73.230469 55.527344 80.582031 55.527344 105.234375 C 55.527344 122.539062 57.699219 135.082031 57.699219 151.515625 C 57.699219 160.597656 53.355469 169.898438 37.289062 169.898438 L 37.289062 182.007812 C 53.355469 182.226562 57.699219 191.523438 57.699219 200.609375 C 57.699219 216.613281 55.527344 229.371094 55.527344 246.886719 C 55.527344 271.542969 64.648438 278.679688 83.539062 278.679688 Z M 83.539062 278.679688 " fill-opacity="1" fill-rule="nonzero"/></g></svg>