<svg xmlns="http://www.w3.org/2000/svg" xmlns:xlink="http://www.w3.org/1999/xlink" width="500" zoomAndPan="magnify" viewBox="0 0 375 374.999991" height="500" preserveAspectRatio="xMidYMid meet" version="1.0"><defs><clipPath id="7edbaabe64"><path d="M 119 114.9375 L 265 114.9375 L 265 260.4375 L 119 260.4375 Z M 119 114.9375 " clip-rule="nonzero"/></clipPath><clipPath id="502ebbe25c"><path d="M 271.386719 112.5 L 312.636719 112.5 L 312.636719 262.5 L 271.386719 262.5 Z M 271.386719 112.5 " clip-rule="nonzero"/></clipPath><clipPath id="e4fa166c17"><path d="M 71.25 112.5 L 112.3125 112.5 L 112.3125 262.5 L 71.25 262.5 Z M 71.25 112.5 " clip-rule="nonzero"/></clipPath></defs><path fill="#000000" d="M 206.417969 187.675781 C 206.417969 188.632812 206.324219 189.574219 206.140625 190.511719 C 205.953125 191.445312 205.679688 192.355469 205.316406 193.234375 C 204.949219 194.117188 204.503906 194.953125 203.976562 195.746094 C 203.449219 196.539062 202.847656 197.273438 202.175781 197.949219 C 201.5 198.625 200.769531 199.226562 199.980469 199.753906 C 199.1875 200.285156 198.351562 200.734375 197.472656 201.097656 C 196.59375 201.464844 195.6875 201.738281 194.753906 201.925781 C 193.824219 202.109375 192.878906 202.203125 191.929688 202.203125 C 190.976562 202.203125 190.035156 202.109375 189.101562 201.925781 C 188.167969 201.738281 187.261719 201.464844 186.382812 201.097656 C 185.503906 200.734375 184.671875 200.285156 183.878906 199.753906 C 183.089844 199.226562 182.355469 198.625 181.683594 197.949219 C 181.011719 197.273438 180.410156 196.539062 179.882812 195.746094 C 179.351562 194.953125 178.90625 194.117188 178.542969 193.234375 C 178.179688 192.355469 177.902344 191.445312 177.71875 190.511719 C 177.53125 189.574219 177.441406 188.632812 177.441406 187.675781 C 177.441406 186.722656 177.53125 185.777344 177.71875 184.84375 C 177.902344 183.90625 178.179688 183 178.542969 182.117188 C 178.90625 181.238281 179.351562 180.398438 179.882812 179.605469 C 180.410156 178.8125 181.011719 178.078125 181.683594 177.40625 C 182.355469 176.730469 183.089844 176.128906 183.878906 175.597656 C 184.671875 175.070312 185.503906 174.621094 186.382812 174.257812 C 187.261719 173.890625 188.167969 173.617188 189.101562 173.429688 C 190.035156 173.242188 190.976562 173.152344 191.929688 173.152344 C 192.878906 173.152344 193.824219 173.242188 194.753906 173.429688 C 195.6875 173.617188 196.59375 173.890625 197.472656 174.257812 C 198.351562 174.621094 199.1875 175.070312 199.980469 175.597656 C 200.769531 176.128906 201.5 176.730469 202.175781 177.40625 C 202.847656 178.078125 203.449219 178.8125 203.976562 179.605469 C 204.503906 180.398438 204.949219 181.238281 205.316406 182.117188 C 205.679688 183 205.953125 183.90625 206.140625 184.84375 C 206.324219 185.777344 206.417969 186.722656 206.417969 187.675781 Z M 206.417969 187.675781 " fill-opacity="1" fill-rule="nonzero"/><path fill="#000000" d="M 187.59375 246.5625 C 187.59375 247.25 187.523438 247.929688 187.390625 248.605469 C 187.257812 249.28125 187.058594 249.9375 186.796875 250.574219 C 186.53125 251.210938 186.210938 251.816406 185.828125 252.386719 C 185.449219 252.960938 185.015625 253.492188 184.527344 253.976562 C 184.042969 254.464844 183.515625 254.898438 182.941406 255.28125 C 182.371094 255.664062 181.769531 255.988281 181.132812 256.25 C 180.5 256.515625 179.84375 256.714844 179.171875 256.847656 C 178.5 256.980469 177.816406 257.050781 177.132812 257.050781 C 176.445312 257.050781 175.761719 256.980469 175.089844 256.847656 C 174.417969 256.714844 173.761719 256.515625 173.128906 256.25 C 172.492188 255.988281 171.890625 255.664062 171.320312 255.28125 C 170.746094 254.898438 170.21875 254.464844 169.734375 253.976562 C 169.246094 253.492188 168.8125 252.960938 168.433594 252.386719 C 168.050781 251.816406 167.730469 251.210938 167.464844 250.574219 C 167.203125 249.9375 167.003906 249.28125 166.871094 248.605469 C 166.738281 247.929688 166.667969 247.25 166.667969 246.5625 C 166.667969 245.871094 166.738281 245.191406 166.871094 244.515625 C 167.003906 243.839844 167.203125 243.183594 167.464844 242.546875 C 167.730469 241.910156 168.050781 241.304688 168.433594 240.734375 C 168.8125 240.160156 169.246094 239.632812 169.734375 239.144531 C 170.21875 238.65625 170.746094 238.222656 171.320312 237.839844 C 171.890625 237.457031 172.492188 237.132812 173.128906 236.871094 C 173.761719 236.605469 174.417969 236.410156 175.089844 236.273438 C 175.761719 236.140625 176.445312 236.074219 177.132812 236.074219 C 177.816406 236.074219 178.5 236.140625 179.171875 236.273438 C 179.84375 236.410156 180.5 236.605469 181.132812 236.871094 C 181.769531 237.132812 182.371094 237.457031 182.941406 237.839844 C 183.515625 238.222656 184.042969 238.65625 184.527344 239.144531 C 185.015625 239.632812 185.449219 240.160156 185.828125 240.734375 C 186.210938 241.304688 186.53125 241.910156 186.796875 242.546875 C 187.058594 243.183594 187.257812 243.839844 187.390625 244.515625 C 187.523438 245.191406 187.59375 245.871094 187.59375 246.5625 Z M 187.59375 246.5625 " fill-opacity="1" fill-rule="nonzero"/><path fill="#000000" d="M 141.40625 176.382812 C 141.40625 177.070312 141.339844 177.753906 141.207031 178.425781 C 141.070312 179.101562 140.875 179.757812 140.609375 180.394531 C 140.347656 181.03125 140.027344 181.636719 139.644531 182.207031 C 139.261719 182.78125 138.828125 183.3125 138.34375 183.796875 C 137.855469 184.285156 137.328125 184.71875 136.757812 185.101562 C 136.1875 185.484375 135.582031 185.808594 134.949219 186.070312 C 134.3125 186.335938 133.660156 186.535156 132.988281 186.667969 C 132.3125 186.800781 131.632812 186.871094 130.945312 186.871094 C 130.257812 186.871094 129.578125 186.800781 128.90625 186.667969 C 128.230469 186.535156 127.578125 186.335938 126.941406 186.070312 C 126.308594 185.808594 125.703125 185.484375 125.132812 185.101562 C 124.5625 184.71875 124.035156 184.285156 123.546875 183.796875 C 123.0625 183.3125 122.628906 182.78125 122.246094 182.207031 C 121.867188 181.636719 121.542969 181.03125 121.28125 180.394531 C 121.015625 179.757812 120.820312 179.101562 120.683594 178.425781 C 120.550781 177.753906 120.484375 177.070312 120.484375 176.382812 C 120.484375 175.691406 120.550781 175.011719 120.683594 174.335938 C 120.820312 173.660156 121.015625 173.003906 121.28125 172.367188 C 121.542969 171.730469 121.867188 171.125 122.246094 170.554688 C 122.628906 169.980469 123.0625 169.453125 123.546875 168.964844 C 124.035156 168.476562 124.5625 168.042969 125.132812 167.660156 C 125.703125 167.277344 126.308594 166.953125 126.941406 166.691406 C 127.578125 166.425781 128.230469 166.230469 128.90625 166.09375 C 129.578125 165.960938 130.257812 165.894531 130.945312 165.894531 C 131.632812 165.894531 132.3125 165.960938 132.988281 166.09375 C 133.660156 166.230469 134.3125 166.425781 134.949219 166.691406 C 135.582031 166.953125 136.1875 167.277344 136.757812 167.660156 C 137.328125 168.042969 137.855469 168.476562 138.34375 168.964844 C 138.828125 169.453125 139.261719 169.980469 139.644531 170.554688 C 140.027344 171.125 140.347656 171.730469 140.609375 172.367188 C 140.875 173.003906 141.070312 173.660156 141.207031 174.335938 C 141.339844 175.011719 141.40625 175.691406 141.40625 176.382812 Z M 141.40625 176.382812 " fill-opacity="1" fill-rule="nonzero"/><path fill="#000000" d="M 248.429688 154.226562 C 254.199219 154.226562 258.894531 149.519531 258.894531 143.738281 C 258.894531 137.953125 254.199219 133.25 248.429688 133.25 C 242.664062 133.25 237.96875 137.953125 237.96875 143.738281 C 237.96875 149.519531 242.664062 154.226562 248.429688 154.226562 Z M 248.429688 154.226562 " fill-opacity="1" fill-rule="nonzero"/><g clip-path="url(#7edbaabe64)"><path fill="#000000" d="M 246.929688 187.675781 C 248.753906 185.882812 250.46875 184.078125 252.054688 182.277344 C 263.117188 169.703125 266.925781 158.402344 262.769531 150.457031 C 262.617188 150.164062 262.453125 149.875 262.28125 149.59375 C 261.574219 151.269531 260.570312 152.785156 259.339844 154.085938 C 261.265625 160.183594 257.453125 169.21875 248.628906 179.246094 C 247.074219 181.011719 245.398438 182.773438 243.605469 184.53125 C 236.851562 178.367188 228.808594 172.351562 219.886719 166.785156 C 219.136719 160.339844 218.039062 154.207031 216.617188 148.535156 C 222.605469 146.984375 228.296875 145.949219 233.507812 145.488281 C 233.4375 144.914062 233.402344 144.328125 233.402344 143.738281 C 233.402344 142.761719 233.496094 141.808594 233.675781 140.882812 C 228.050781 141.347656 221.894531 142.449219 215.421875 144.132812 C 214.695312 141.664062 213.90625 139.300781 213.050781 137.058594 C 207.617188 122.808594 200.117188 114.960938 191.929688 114.960938 C 183.742188 114.960938 176.238281 122.808594 170.804688 137.058594 C 169.953125 139.292969 169.167969 141.648438 168.445312 144.105469 C 163.171875 142.738281 158.082031 141.75 153.285156 141.183594 C 136.675781 139.214844 125.242188 142.511719 121.085938 150.457031 C 119.484375 153.523438 119.066406 157.113281 119.8125 161.097656 C 120.109375 162.703125 120.601562 164.371094 121.277344 166.097656 C 122.457031 165.097656 123.796875 164.28125 125.246094 163.679688 C 124.542969 161.742188 124.070312 159.730469 124.019531 157.777344 C 123.972656 155.960938 124.289062 154.195312 125.132812 152.582031 C 128.300781 146.527344 138.367188 144.03125 152.75 145.730469 C 157.332031 146.273438 162.195312 147.21875 167.242188 148.523438 C 165.820312 154.195312 164.71875 160.332031 163.96875 166.785156 C 159.035156 169.863281 154.375 173.078125 150.046875 176.382812 L 140.257812 184.527344 L 136.933594 187.671875 C 135.105469 189.46875 133.390625 191.273438 131.804688 193.078125 C 120.738281 205.652344 116.933594 216.953125 121.085938 224.898438 C 124.457031 231.34375 132.613281 234.726562 144.4375 234.726562 C 147.191406 234.726562 150.144531 234.542969 153.285156 234.171875 C 158.082031 233.601562 163.167969 232.617188 168.441406 231.25 C 168.691406 232.097656 168.949219 232.933594 169.214844 233.757812 C 170.507812 232.953125 171.929688 232.335938 173.445312 231.953125 C 173.246094 231.320312 173.046875 230.679688 172.859375 230.03125 C 179.046875 228.214844 185.453125 225.902344 191.929688 223.140625 C 198.417969 225.90625 204.835938 228.222656 211.042969 230.042969 C 206.238281 246.261719 198.9375 255.8125 191.929688 255.8125 C 191.054688 255.8125 190.175781 255.667969 189.300781 255.386719 C 188.328125 256.734375 187.136719 257.910156 185.78125 258.871094 C 187.773438 259.882812 189.828125 260.394531 191.929688 260.394531 C 200.117188 260.394531 207.617188 252.546875 213.050781 238.292969 C 213.902344 236.0625 214.691406 233.707031 215.414062 231.25 C 220.6875 232.617188 225.773438 233.601562 230.574219 234.171875 C 233.710938 234.542969 236.667969 234.726562 239.421875 234.726562 C 251.242188 234.726562 259.402344 231.34375 262.769531 224.898438 C 266.925781 216.953125 263.117188 205.652344 252.054688 193.078125 C 250.46875 191.273438 248.753906 189.472656 246.929688 187.675781 Z M 163.398438 172.574219 C 162.996094 177.484375 162.789062 182.539062 162.789062 187.675781 C 162.789062 192.820312 162.996094 197.867188 163.394531 202.765625 C 156.035156 197.972656 149.328125 192.863281 143.59375 187.671875 C 149.324219 182.472656 156.015625 177.375 163.398438 172.574219 Z M 152.75 229.621094 C 138.363281 231.324219 128.300781 228.828125 125.132812 222.773438 C 121.96875 216.714844 125.648438 206.996094 135.230469 196.109375 C 136.785156 194.34375 138.464844 192.578125 140.257812 190.816406 C 147.015625 196.972656 155.082031 203.003906 163.964844 208.554688 C 164.710938 215.019531 165.8125 221.160156 167.238281 226.835938 C 162.191406 228.136719 157.332031 229.078125 152.75 229.621094 Z M 220.457031 172.574219 C 227.847656 177.375 234.539062 182.476562 240.269531 187.675781 C 234.539062 192.878906 227.847656 197.980469 220.457031 202.78125 C 220.859375 197.871094 221.070312 192.8125 221.070312 187.675781 C 221.070312 182.539062 220.859375 177.484375 220.457031 172.574219 Z M 214.925781 163.789062 C 212.273438 162.238281 209.554688 160.730469 206.777344 159.269531 C 203.761719 157.6875 200.738281 156.191406 197.71875 154.789062 C 202.65625 152.824219 207.527344 151.132812 212.25 149.746094 C 213.324219 154.046875 214.230469 158.746094 214.925781 163.789062 Z M 191.929688 119.539062 C 198.941406 119.539062 206.246094 129.105469 211.050781 145.339844 C 204.859375 147.15625 198.429688 149.464844 191.945312 152.21875 C 185.449219 149.449219 179.027344 147.132812 172.816406 145.3125 C 177.621094 129.09375 184.921875 119.539062 191.929688 119.539062 Z M 171.613281 149.726562 C 176.351562 151.121094 181.226562 152.8125 186.167969 154.785156 C 183.132812 156.191406 180.097656 157.683594 177.082031 159.269531 C 174.304688 160.730469 171.585938 162.238281 168.929688 163.789062 C 169.628906 158.738281 170.535156 154.035156 171.613281 149.726562 Z M 171.664062 225.613281 C 170.570312 221.21875 169.671875 216.511719 168.984375 211.59375 C 171.628906 213.136719 174.328125 214.636719 177.082031 216.082031 C 180.101562 217.671875 183.132812 219.167969 186.160156 220.574219 C 181.238281 222.539062 176.382812 224.222656 171.664062 225.613281 Z M 212.246094 225.625 C 207.507812 224.234375 202.636719 222.542969 197.699219 220.574219 C 200.726562 219.167969 203.757812 217.671875 206.777344 216.082031 C 209.554688 214.625 212.273438 213.113281 214.925781 211.566406 C 214.230469 216.617188 213.324219 221.320312 212.246094 225.625 Z M 215.613281 205.828125 C 212.085938 207.972656 208.425781 210.046875 204.65625 212.027344 C 200.414062 214.253906 196.160156 216.300781 191.929688 218.15625 C 187.699219 216.300781 183.441406 214.253906 179.203125 212.027344 C 175.460938 210.058594 171.8125 207.992188 168.285156 205.84375 C 167.675781 199.96875 167.359375 193.859375 167.359375 187.675781 C 167.359375 181.277344 167.671875 175.210938 168.246094 169.527344 C 171.773438 167.382812 175.429688 165.308594 179.203125 163.328125 C 183.4375 161.101562 187.699219 159.058594 191.941406 157.203125 C 196.167969 159.058594 200.417969 161.101562 204.65625 163.328125 C 208.425781 165.308594 212.085938 167.382812 215.613281 169.527344 C 216.1875 175.210938 216.5 181.277344 216.5 187.675781 C 216.5 194.074219 216.1875 200.144531 215.613281 205.828125 Z M 258.722656 222.773438 C 255.558594 228.828125 245.492188 231.324219 231.109375 229.621094 C 226.523438 229.078125 221.664062 228.136719 216.613281 226.832031 C 218.039062 221.160156 219.136719 215.019531 219.886719 208.570312 C 228.808594 203.003906 236.851562 196.984375 243.605469 190.824219 C 245.398438 192.582031 247.074219 194.34375 248.628906 196.109375 C 258.210938 206.996094 261.890625 216.714844 258.722656 222.773438 Z M 258.722656 222.773438 " fill-opacity="1" fill-rule="nonzero"/></g><g clip-path="url(#502ebbe25c)"><path fill="#000000" d="M 279.226562 262.351562 L 271.492188 262.351562 L 271.492188 254.300781 L 276.699219 254.300781 C 286.171875 254.300781 288.539062 249.5625 288.539062 238.355469 C 288.539062 227.78125 287.59375 218.464844 287.59375 206.785156 C 287.59375 195.417969 290.433594 189.734375 298.011719 187.683594 L 298.011719 187.050781 C 290.433594 185 287.59375 179.316406 287.59375 168.109375 C 287.59375 156.269531 288.539062 147.113281 288.539062 136.539062 C 288.539062 125.171875 286.171875 120.59375 276.699219 120.59375 L 271.492188 120.59375 L 271.492188 112.386719 L 279.226562 112.386719 C 292.960938 112.386719 299.589844 117.753906 299.589844 135.75 C 299.589844 148.378906 298.011719 157.535156 298.011719 169.53125 C 298.011719 176.160156 301.167969 182.949219 312.851562 182.949219 L 312.851562 191.789062 C 301.167969 191.945312 298.011719 198.734375 298.011719 205.363281 C 298.011719 217.046875 299.589844 226.359375 299.589844 239.144531 C 299.589844 257.140625 292.960938 262.351562 279.226562 262.351562 Z M 279.226562 262.351562 " fill-opacity="1" fill-rule="nonzero"/></g><g clip-path="url(#e4fa166c17)"><path fill="#000000" d="M 104.660156 262.351562 L 112.394531 262.351562 L 112.394531 254.300781 L 107.183594 254.300781 C 97.714844 254.300781 95.347656 249.5625 95.347656 238.355469 C 95.347656 227.78125 96.292969 218.464844 96.292969 206.785156 C 96.292969 195.417969 93.453125 189.734375 85.875 187.683594 L 85.875 187.050781 C 93.453125 185 96.292969 179.316406 96.292969 168.109375 C 96.292969 156.269531 95.347656 147.113281 95.347656 136.539062 C 95.347656 125.171875 97.714844 120.59375 107.183594 120.59375 L 112.394531 120.59375 L 112.394531 112.386719 L 104.660156 112.386719 C 90.925781 112.386719 84.296875 117.753906 84.296875 135.75 C 84.296875 148.378906 85.875 157.535156 85.875 169.53125 C 85.875 176.160156 82.71875 182.949219 71.035156 182.949219 L 71.035156 191.789062 C 82.71875 191.945312 85.875 198.734375 85.875 205.363281 C 85.875 217.046875 84.296875 226.359375 84.296875 239.144531 C 84.296875 257.140625 90.925781 262.351562 104.660156 262.351562 Z M 104.660156 262.351562 " fill-opacity="1" fill-rule="nonzero"/></g></svg>